<svg xmlns="http://www.w3.org/2000/svg" width="320" height="195" viewBox="0 0 320 195" role="img"><rect x="0.5" y="0.5" width="319" height="194" rx="6" fill="#0d1117" stroke="#30363d"/><text x="25" y="33" font-family="'Segoe UI', Ubuntu, 'Helvetica Neue', Sans-Serif" font-size="17" font-weight="600" fill="#58a6ff" text-anchor="start">Most Used Languages</text><clipPath id="bar"><rect x="25" y="50" width="270" height="9" rx="4.5"/></clipPath><rect x="25" y="50" width="270" height="9" rx="4.5" fill="#21262d"/><rect x="25.00" y="50" width="81.28" height="9" fill="#7355dd" clip-path="url(#bar)"/><rect x="106.28" y="50" width="81.27" height="9" fill="#3572A5" clip-path="url(#bar)"/><rect x="187.55" y="50" width="41.46" height="9" fill="#3178c6" clip-path="url(#bar)"/><rect x="229.00" y="50" width="36.67" height="9" fill="#f1e05a" clip-path="url(#bar)"/><rect x="265.67" y="50" width="17.48" height="9" fill="#e34c26" clip-path="url(#bar)"/><rect x="283.16" y="50" width="3.94" height="9" fill="#012456" clip-path="url(#bar)"/><rect x="287.09" y="50" width="7.91" height="9" fill="#8b949e" clip-path="url(#bar)"/><circle cx="29.0" cy="78.0" r="4.2" fill="#7355dd"/><text x="40.0" y="82" font-family="'Segoe UI', Ubuntu, 'Helvetica Neue', Sans-Serif" font-size="12" font-weight="400" fill="#c9d1d9" text-anchor="start">C# 30.1%</text><circle cx="164.0" cy="78.0" r="4.2" fill="#3572A5"/><text x="175.0" y="82" font-family="'Segoe UI', Ubuntu, 'Helvetica Neue', Sans-Serif" font-size="12" font-weight="400" fill="#c9d1d9" text-anchor="start">Python 30.1%</text><circle cx="29.0" cy="99.0" r="4.2" fill="#3178c6"/><text x="40.0" y="103" font-family="'Segoe UI', Ubuntu, 'Helvetica Neue', Sans-Serif" font-size="12" font-weight="400" fill="#c9d1d9" text-anchor="start">TypeScript 15.4%</text><circle cx="164.0" cy="99.0" r="4.2" fill="#f1e05a"/><text x="175.0" y="103" font-family="'Segoe UI', Ubuntu, 'Helvetica Neue', Sans-Serif" font-size="12" font-weight="400" fill="#c9d1d9" text-anchor="start">JavaScript 13.6%</text><circle cx="29.0" cy="120.0" r="4.2" fill="#e34c26"/><text x="40.0" y="124" font-family="'Segoe UI', Ubuntu, 'Helvetica Neue', Sans-Serif" font-size="12" font-weight="400" fill="#c9d1d9" text-anchor="start">HTML 6.5%</text><circle cx="164.0" cy="120.0" r="4.2" fill="#012456"/><text x="175.0" y="124" font-family="'Segoe UI', Ubuntu, 'Helvetica Neue', Sans-Serif" font-size="12" font-weight="400" fill="#c9d1d9" text-anchor="start">PowerShell 1.5%</text><circle cx="29.0" cy="141.0" r="4.2" fill="#8b949e"/><text x="40.0" y="145" font-family="'Segoe UI', Ubuntu, 'Helvetica Neue', Sans-Serif" font-size="12" font-weight="400" fill="#c9d1d9" text-anchor="start">Other 2.9%</text></svg>