<svg xmlns="http://www.w3.org/2000/svg" viewBox="0 0 108 108" width="108" height="108" role="img" aria-label="Treningi">
  <rect width="108" height="108" rx="24" ry="24" fill="#FF6A21"/>
  <g fill="#2A0B00">
    <path d="M28.64,43.29 A5.64,5.64 0 0 1 34.27,48.93 V59.07 A5.64,5.64 0 0 1 28.64,64.71 A5.64,5.64 0 0 1 23,59.07 V48.93 A5.64,5.64 0 0 1 28.64,43.29 Z"/>
    <path d="M41.6,35.4 A5.07,5.07 0 0 1 46.67,40.47 V67.53 A5.07,5.07 0 0 1 41.6,72.6 A5.07,5.07 0 0 1 36.53,67.53 V40.47 A5.07,5.07 0 0 1 41.6,35.4 Z"/>
    <path d="M46.67,48.93 H61.33 V59.07 H46.67 Z"/>
    <path d="M66.4,35.4 A5.07,5.07 0 0 1 71.47,40.47 V67.53 A5.07,5.07 0 0 1 66.4,72.6 A5.07,5.07 0 0 1 61.33,67.53 V40.47 A5.07,5.07 0 0 1 66.4,35.4 Z"/>
    <path d="M79.36,43.29 A5.64,5.64 0 0 1 85,48.93 V59.07 A5.64,5.64 0 0 1 79.36,64.71 A5.64,5.64 0 0 1 73.73,59.07 V48.93 A5.64,5.64 0 0 1 79.36,43.29 Z"/>
  </g>
</svg>
